<svg xmlns="http://www.w3.org/2000/svg" width="1200" height="630" viewBox="0 0 1200 630" fill="none">
  <defs>
    <linearGradient id="bg" x1="80" y1="20" x2="1080" y2="610" gradientUnits="userSpaceOnUse">
      <stop stop-color="#F3F6FF"/>
      <stop offset="1" stop-color="#E6EEFF"/>
    </linearGradient>
    <linearGradient id="line" x1="0" y1="0" x2="1" y2="1">
      <stop stop-color="#2B57FF"/>
      <stop offset="1" stop-color="#1D3FB8"/>
    </linearGradient>
  </defs>

  <rect width="1200" height="630" rx="28" fill="url(#bg)"/>
  <circle cx="140" cy="86" r="180" fill="#2B57FF" fill-opacity=".12"/>
  <circle cx="1088" cy="548" r="220" fill="#FF6F4D" fill-opacity=".14"/>

  <g transform="translate(90 116)">
    <rect x="0" y="0" width="1020" height="398" rx="24" fill="#FFFFFF" fill-opacity=".72" stroke="#D7DEF0"/>
    <text x="56" y="120" fill="#1D3FB8" font-size="44" font-family="Avenir Next, Segoe UI, Helvetica Neue, Arial, sans-serif" font-weight="700">MDSN</text>
    <text x="56" y="196" fill="#0F172A" font-size="58" font-family="Charter, Palatino Linotype, serif" font-weight="700">
      Markdown Shared Notation
    </text>
    <text x="56" y="268" fill="#52607A" font-size="34" font-family="Avenir Next, Segoe UI, Helvetica Neue, Arial, sans-serif">
      The interaction layer for Markdown.
    </text>

    <g transform="translate(56 314)">
      <circle cx="34" cy="34" r="32" fill="#1D3FB8"/>
      <circle cx="130" cy="34" r="32" fill="#1D3FB8"/>
      <circle cx="82" cy="34" r="8" fill="#FF6F4D"/>
      <path d="M34 96V76C34 60 46 48 62 48H74" stroke="url(#line)" stroke-width="10" stroke-linecap="round"/>
      <path d="M130 96V76C130 60 118 48 102 48H90" stroke="url(#line)" stroke-width="10" stroke-linecap="round"/>
    </g>
  </g>
</svg>
